<svg width="32" height="32" viewBox="0 0 32 32" fill="none" xmlns="http://www.w3.org/2000/svg">
<path d="M18.4399 25.3334C18.2407 25.3341 18.0439 25.2901 17.864 25.2047C17.684 25.1193 17.5254 24.9947 17.3999 24.84L10.9599 16.84C10.7638 16.6015 10.6566 16.3022 10.6566 15.9934C10.6566 15.6845 10.7638 15.3853 10.9599 15.1467L17.6266 7.14671C17.8529 6.87442 18.1781 6.70319 18.5307 6.67068C18.8833 6.63817 19.2343 6.74706 19.5066 6.97338C19.7789 7.19969 19.9501 7.52491 19.9826 7.87748C20.0151 8.23005 19.9063 8.58109 19.6799 8.85337L13.7199 16L19.4799 23.1467C19.643 23.3424 19.7465 23.5807 19.7784 23.8335C19.8102 24.0862 19.769 24.3428 19.6596 24.5728C19.5502 24.8028 19.3772 24.9967 19.161 25.1315C18.9449 25.2663 18.6946 25.3363 18.4399 25.3334Z" fill="#114556"/>
</svg>
