<svg width="32" height="32" viewBox="0 0 32 32" fill="none" xmlns="http://www.w3.org/2000/svg">
<path d="M22.4001 4.79999C23.6244 4.79992 24.8025 5.26771 25.6933 6.10764C26.5841 6.94758 27.1202 8.09616 27.1921 9.31839L27.2001 9.59999V16.6064C27.1999 17.3577 26.9354 18.0849 26.4529 18.6608L26.2625 18.8688L18.8689 26.2624C18.3376 26.7936 17.6364 27.121 16.8881 27.1872L16.6064 27.2H9.60005C8.37571 27.2001 7.19763 26.7323 6.30683 25.8923C5.41604 25.0524 4.87988 23.9038 4.80805 22.6816L4.80005 22.4V9.59999C4.79998 8.37565 5.26777 7.19756 6.1077 6.30677C6.94764 5.41598 8.09622 4.87982 9.31845 4.80799L9.60005 4.79999H22.4001ZM22.4001 6.39999H9.60005C8.79273 6.39973 8.01514 6.70464 7.42317 7.25358C6.8312 7.80253 6.4686 8.55494 6.40805 9.35999L6.40005 9.59999V22.4C6.39979 23.2073 6.7047 23.9849 7.25364 24.5769C7.80259 25.1688 8.555 25.5314 9.36005 25.592L9.60005 25.6H16V20.8C16 19.5757 16.4678 18.3976 17.3077 17.5068C18.1476 16.616 19.2962 16.0798 20.5185 16.008L20.8001 16H25.6001V9.59999C25.6003 8.79267 25.2954 8.01508 24.7465 7.42311C24.1975 6.83114 23.4451 6.46854 22.64 6.40799L22.4001 6.39999ZM25.2529 17.6016L20.8001 17.6C19.9927 17.5997 19.2151 17.9046 18.6232 18.4536C18.0312 19.0025 17.6686 19.7549 17.6081 20.56L17.6 20.8V25.2496L17.7377 25.1312L25.1313 17.7376C25.1745 17.6944 25.2144 17.6496 25.2512 17.6016H25.2529Z" fill="#114556"/>
</svg>
