<svg width="32" height="32" viewBox="0 0 32 32" fill="none" xmlns="http://www.w3.org/2000/svg">
<path d="M8.16667 4C7.0616 4 6.00179 4.43899 5.22039 5.22039C4.43899 6.00179 4 7.0616 4 8.16667V23.8333C4 24.9384 4.43899 25.9982 5.22039 26.7796C6.00179 27.561 7.0616 28 8.16667 28H17.3333V21.5C17.3333 20.3949 17.7723 19.3351 18.5537 18.5537C19.3351 17.7723 20.3949 17.3333 21.5 17.3333H28V8.16667C28 7.0616 27.561 6.00179 26.7796 5.22039C25.9982 4.43899 24.9384 4 23.8333 4H8.16667ZM27.6313 19H21.5C20.837 19 20.2011 19.2634 19.7322 19.7322C19.2634 20.2011 19 20.837 19 21.5V27.6313C19.4588 27.4241 19.8762 27.1354 20.232 26.7793L26.7793 20.2327C27.1355 19.8766 27.4242 19.459 27.6313 19V19Z" fill="#58D5DB"/>
</svg>
