<svg width="32" height="32" viewBox="0 0 32 32" fill="none" xmlns="http://www.w3.org/2000/svg">
<path fill-rule="evenodd" clip-rule="evenodd" d="M26.4533 24.2575C26.4533 28.6521 20.4266 29.1601 15.8946 29.1601L15.5703 29.1598C12.6829 29.1528 5.33325 28.9705 5.33325 24.2308C5.33325 19.9258 11.1177 19.3505 15.6152 19.3288L16.2189 19.3284C19.1061 19.3354 26.4533 19.5177 26.4533 24.2575ZM15.8946 21.3281C10.2133 21.3281 7.33325 22.3041 7.33325 24.2308C7.33325 26.1748 10.2133 27.1601 15.8946 27.1601C21.5746 27.1601 24.4533 26.1841 24.4533 24.2575C24.4533 22.3135 21.5746 21.3281 15.8946 21.3281ZM15.8946 2.66626C19.7986 2.66626 22.9733 5.84226 22.9733 9.74626C22.9733 13.6503 19.7986 16.8249 15.8946 16.8249H15.8519C11.9559 16.8129 8.79992 13.6356 8.81321 9.74226C8.81321 5.84226 11.9893 2.66626 15.8946 2.66626ZM15.8946 4.57026C13.0399 4.57026 10.7172 6.89159 10.7172 9.74626C10.7079 12.5916 13.0133 14.9116 15.8559 14.9223L15.8946 15.8743V14.9223C18.7479 14.9223 21.0693 12.5996 21.0693 9.74626C21.0693 6.89159 18.7479 4.57026 15.8946 4.57026Z" fill="#114556"/>
</svg>
